<svg xmlns="http://www.w3.org/2000/svg" width="22.199" height="22.199" viewBox="0 0 22.199 22.199"><defs><style>.a{fill:#222;stroke:#fff;stroke-width:0.2px;fill-rule:evenodd;}</style></defs><g transform="translate(0.1 0.1)"><path class="a" d="M20,11.5a4,4,0,1,1-4-4,4,4,0,0,1,4,4Zm-2,0a2,2,0,1,1-2-2,2,2,0,0,1,2,2Z" transform="translate(-5 -3.5)"/><path class="a" d="M12.5,1.5a11,11,0,1,0,11,11A11,11,0,0,0,12.5,1.5Zm-9,11a8.964,8.964,0,0,0,1.908,5.542,9,9,0,0,1,14.249-.084A9,9,0,1,0,3.5,12.5Zm9,9a8.963,8.963,0,0,1-5.672-2.012,7,7,0,0,1,11.427-.068A8.964,8.964,0,0,1,12.5,21.5Z" transform="translate(-1.5 -1.5)"/></g></svg>