<svg xmlns="http://www.w3.org/2000/svg" width="22" height="21.354" viewBox="0 0 22 21.354"><defs><style>.a{fill:#222;}</style></defs><g transform="translate(-1)"><path class="a" d="M15.181,25.854l-1.429-.821,3.285-5.749h4.928a1.643,1.643,0,0,0,1.643-1.643V7.785a1.643,1.643,0,0,0-1.643-1.643H6.535A1.643,1.643,0,0,0,4.893,7.785v9.856a1.643,1.643,0,0,0,1.643,1.643h6.4v1.643h-6.4A3.285,3.285,0,0,1,3.25,17.641V7.785A3.285,3.285,0,0,1,6.535,4.5h15.43A3.285,3.285,0,0,1,25.25,7.785v9.856a3.285,3.285,0,0,1-3.285,3.285H17.99Z" transform="translate(-2.25 -4.5)"/></g></svg>