<svg xmlns="http://www.w3.org/2000/svg" width="19.962" height="19.996" viewBox="0 0 19.962 19.996"><defs><style>.a{fill:#fff;}</style></defs><g transform="translate(0 0)"><path class="a" d="M21.4,12.63a.625.625,0,0,1-.444-.181L12.023,3.51,3.091,12.448a.625.625,0,0,1-.881-.881l9.376-9.376a.625.625,0,0,1,.881,0l9.376,9.376A.625.625,0,0,1,21.4,12.63Z" transform="translate(-2.059 -2.009)"/><path class="a" d="M13.5,7.79,6,15.316v7.607a1.25,1.25,0,0,0,1.25,1.25h4.375V17.922h3.75v6.251h4.375A1.25,1.25,0,0,0,21,22.923V15.272Z" transform="translate(-3.537 -4.176)"/></g></svg>